<?xml version="1.0" encoding="UTF-8" standalone="no"?>
<svg
   xmlns:dc="http://purl.org/dc/elements/1.1/"
   xmlns:cc="http://creativecommons.org/ns#"
   xmlns:rdf="http://www.w3.org/1999/02/22-rdf-syntax-ns#"
   xmlns:svg="http://www.w3.org/2000/svg"
   xmlns="http://www.w3.org/2000/svg"
   xmlns:sodipodi="http://sodipodi.sourceforge.net/DTD/sodipodi-0.dtd"
   xmlns:inkscape="http://www.inkscape.org/namespaces/inkscape"
   version="1.1"
   id="Your_Icon"
   x="0px"
   y="0px"
   width="84.921341"
   height="85"
   viewBox="0 0 84.921341 85"
   enable-background="new 0 0 100 100"
   xml:space="preserve"
   inkscape:version="0.48.4 r9939"
   sodipodi:docname="crossed_spoons.svg"><metadata
     id="metadata9"><rdf:RDF><cc:Work
         rdf:about=""><dc:format>image/svg+xml</dc:format><dc:type
           rdf:resource="http://purl.org/dc/dcmitype/StillImage" /><dc:title /></cc:Work></rdf:RDF></metadata><defs
     id="defs7" /><sodipodi:namedview
     pagecolor="#ffffff"
     bordercolor="#666666"
     borderopacity="1"
     objecttolerance="10"
     gridtolerance="10"
     guidetolerance="10"
     inkscape:pageopacity="0"
     inkscape:pageshadow="2"
     inkscape:window-width="1440"
     inkscape:window-height="876"
     id="namedview5"
     showgrid="false"
     inkscape:zoom="4.72"
     inkscape:cx="22.20058"
     inkscape:cy="42.527263"
     inkscape:window-x="0"
     inkscape:window-y="24"
     inkscape:window-maximized="1"
     inkscape:current-layer="Your_Icon"
     fit-margin-top="0"
     fit-margin-left="0"
     fit-margin-right="0"
     fit-margin-bottom="0" /><path
     d="m 84.358158,73.041468 c 0,0 -17.178671,-15.155244 -33.919115,-30.774667 3.507807,-3.703462 6.787017,-7.109449 9.60604,-9.941449 5.486314,1.489371 12.649667,-0.770639 18.153949,-6.27592 C 85.508128,18.743331 87.105308,8.4924293 81.762741,3.1538546 76.428159,-2.1847202 66.17526,-0.58254875 58.865166,6.7245505 53.358888,12.223842 51.09788,19.392186 52.593239,24.879498 49.510682,27.964052 46.06776,31.306152 42.462126,34.744082 38.854495,31.306152 35.411574,27.964052 32.329016,24.879498 33.821381,19.392186 31.559375,12.223842 26.0511,6.7245505 18.747993,-0.58155051 8.4960932,-2.1837219 3.1545238,3.1538546 -2.184051,8.4924293 -0.58487423,18.743331 6.7282144,26.049432 c 5.5002896,5.505281 12.6636426,7.765291 18.1479596,6.274922 2.820021,2.833997 6.10023,6.238985 9.607039,9.943445 C 17.742768,57.886224 0.56309902,73.041468 0.56309902,73.041468 c -0.93734512,0.943334 -0.83253017,7.723364 1.37856608,9.938453 2.495594,2.493598 8.9921239,2.321901 9.9364569,1.38256 0,0 15.618426,-17.475148 30.581009,-33.58271 14.967575,16.107562 30.584004,33.58271 30.584004,33.58271 0.939342,0.939341 7.435872,1.111038 9.937455,-1.38256 2.214091,-2.215089 2.31691,-8.995119 1.377568,-9.938453 z M 61.903802,9.760191 C 66.912958,4.7400541 73.948537,3.6439892 77.618058,7.3075212 81.28159,10.971053 80.177539,18.009627 75.163392,23.019781 70.147248,28.036924 63.110671,29.132988 59.447139,25.472451 55.783607,21.808919 56.886659,14.77334 61.903802,9.760191 z M 25.471124,25.472451 C 21.80859,29.132988 14.778002,28.036924 9.7558691,23.019781 4.7427198,18.009627 3.642662,10.971053 7.306194,7.3075212 10.972721,3.6439892 18.005305,4.7400541 23.021449,9.760191 c 5.016144,5.013149 6.113207,12.048728 2.449675,15.71226 z M 10.691218,79.810517 c -1.4863761,1.482383 -3.8951234,1.482383 -5.3814992,0 -1.4833811,-1.483381 -1.4833811,-3.892128 0,-5.379502 1.4863758,-1.479389 3.8951231,-1.479389 5.3814992,0 1.483381,1.487374 1.483381,3.896121 0,5.379502 z m 68.917326,0 c -1.485378,1.482383 -3.889134,1.482383 -5.37551,0 -1.485377,-1.483381 -1.485377,-3.892128 0,-5.379502 1.485378,-1.479389 3.889134,-1.479389 5.37551,0 1.487374,1.487374 1.487374,3.896121 0,5.379502 z"
     id="path3"
     style="fill:#5cb85c;fill-opacity:1"
     inkscape:connector-curvature="0" /></svg>