<?xml version="1.0" encoding="UTF-8" standalone="no"?>
<svg
   xmlns:dc="http://purl.org/dc/elements/1.1/"
   xmlns:cc="http://creativecommons.org/ns#"
   xmlns:rdf="http://www.w3.org/1999/02/22-rdf-syntax-ns#"
   xmlns:svg="http://www.w3.org/2000/svg"
   xmlns="http://www.w3.org/2000/svg"
   xmlns:sodipodi="http://sodipodi.sourceforge.net/DTD/sodipodi-0.dtd"
   xmlns:inkscape="http://www.inkscape.org/namespaces/inkscape"
   version="1.1"
   id="Your_Icon"
   x="0px"
   y="0px"
   width="85.071274"
   height="85.15007"
   viewBox="0 0 85.071274 85.15007"
   enable-background="new 0 0 100 100"
   xml:space="preserve"
   inkscape:version="0.48.4 r9939"
   sodipodi:docname="crossed_spoons.svg"><metadata
     id="metadata9"><rdf:RDF><cc:Work
         rdf:about=""><dc:format>image/svg+xml</dc:format><dc:type
           rdf:resource="http://purl.org/dc/dcmitype/StillImage" /><dc:title></dc:title></cc:Work></rdf:RDF></metadata><defs
     id="defs7" /><sodipodi:namedview
     pagecolor="#ffffff"
     bordercolor="#666666"
     borderopacity="1"
     objecttolerance="10"
     gridtolerance="10"
     guidetolerance="10"
     inkscape:pageopacity="0"
     inkscape:pageshadow="2"
     inkscape:window-width="1440"
     inkscape:window-height="876"
     id="namedview5"
     showgrid="false"
     inkscape:zoom="4.72"
     inkscape:cx="22.20058"
     inkscape:cy="42.527265"
     inkscape:window-x="0"
     inkscape:window-y="24"
     inkscape:window-maximized="1"
     inkscape:current-layer="Your_Icon"
     fit-margin-top="0"
     fit-margin-left="0"
     fit-margin-right="0"
     fit-margin-bottom="0" /><path
     d="m 84.507093,73.170423 c 0,0 -17.209,-15.182 -33.979,-30.829 3.514,-3.71 6.799,-7.122 9.623,-9.959 5.496,1.492 12.672,-0.772 18.186,-6.287 7.322,-7.319 8.922,-17.5880001 3.57,-22.9360001 -5.344,-5.348 -15.615,-3.74299997 -22.938,3.577 -5.516,5.5090001 -7.781,12.6900001 -6.283,18.1870001 -3.088,3.09 -6.537,6.438 -10.149,9.882 -3.614,-3.444 -7.063,-6.792 -10.151,-9.882 1.495,-5.497 -0.771,-12.678 -6.289,-18.1870001 -7.316,-7.31899997 -17.5859999,-8.924 -22.9369999,-3.577 -5.348,5.348 -3.74599997,15.6170001 3.58,22.9360001 5.5099999,5.515 12.6859999,7.779 18.1799999,6.286 2.825,2.839 6.111,6.25 9.624,9.961 -16.77,15.646 -33.97999987,30.828 -33.97999987,30.828 -0.939,0.945 -0.834,7.737 1.38099997,9.956 2.5,2.498 9.0079999,2.326 9.9539999,1.385 0,0 15.646,-17.506 30.635,-33.642 14.994,16.136 30.638,33.642 30.638,33.642 0.941,0.941 7.449,1.113 9.955,-1.385 2.218,-2.219 2.321,-9.011 1.38,-9.956 z m -22.494,-63.3930001 c 5.018,-5.029 12.066,-6.127 15.742,-2.457 3.67,3.6700001 2.564,10.7210001 -2.459,15.7400001 -5.025,5.026 -12.074,6.124 -15.744,2.457 -3.67,-3.67 -2.565,-10.718 2.461,-15.7400001 z m -36.497,15.7400001 c -3.669,3.667 -10.712,2.569 -15.7429999,-2.457 -5.022,-5.019 -6.124,-12.07 -2.454,-15.7400001 3.6729999,-3.67 10.7179999,-2.572 15.7429999,2.457 5.025,5.0220001 6.124,12.0700001 2.454,15.7400001 z m -14.806,54.434 c -1.4889999,1.485 -3.9019999,1.485 -5.3909999,0 -1.486,-1.486 -1.486,-3.899 0,-5.389 1.489,-1.482 3.902,-1.482 5.3909999,0 1.486,1.49 1.486,3.903 0,5.389 z m 69.039,0 c -1.488,1.485 -3.896,1.485 -5.385,0 -1.488,-1.486 -1.488,-3.899 0,-5.389 1.488,-1.482 3.896,-1.482 5.385,0 1.49,1.49 1.49,3.903 0,5.389 z"
     id="path3"
     style="fill:#5cb85c;fill-opacity:1"
     inkscape:connector-curvature="0" /></svg>