<?xml version="1.0" encoding="UTF-8" standalone="no"?>
<svg
   xmlns:dc="http://purl.org/dc/elements/1.1/"
   xmlns:cc="http://creativecommons.org/ns#"
   xmlns:rdf="http://www.w3.org/1999/02/22-rdf-syntax-ns#"
   xmlns:svg="http://www.w3.org/2000/svg"
   xmlns="http://www.w3.org/2000/svg"
   xmlns:sodipodi="http://sodipodi.sourceforge.net/DTD/sodipodi-0.dtd"
   xmlns:inkscape="http://www.inkscape.org/namespaces/inkscape"
   version="1.1"
   id="Your_Icon"
   x="0px"
   y="0px"
   width="64"
   height="64"
   viewBox="0 0 64 64"
   enable-background="new 0 0 100 100"
   xml:space="preserve"
   inkscape:version="0.48.4 r9939"
   sodipodi:docname="favicon.svg"
   inkscape:export-filename="/home/wolf/Dropbox/Projects-current/siegvswolf/collateral/favicon.png"
   inkscape:export-xdpi="90"
   inkscape:export-ydpi="90"><metadata
     id="metadata25"><rdf:RDF><cc:Work
         rdf:about=""><dc:format>image/svg+xml</dc:format><dc:type
           rdf:resource="http://purl.org/dc/dcmitype/StillImage" /><dc:title></dc:title></cc:Work></rdf:RDF></metadata><defs
     id="defs23" /><sodipodi:namedview
     pagecolor="#ffffff"
     bordercolor="#666666"
     borderopacity="1"
     objecttolerance="10"
     gridtolerance="10"
     guidetolerance="10"
     inkscape:pageopacity="1"
     inkscape:pageshadow="2"
     inkscape:window-width="1440"
     inkscape:window-height="876"
     id="namedview21"
     showgrid="false"
     fit-margin-top="0"
     fit-margin-left="0"
     fit-margin-right="0"
     fit-margin-bottom="0"
     inkscape:zoom="4.72"
     inkscape:cx="13.607079"
     inkscape:cy="35.292397"
     inkscape:window-x="0"
     inkscape:window-y="24"
     inkscape:window-maximized="1"
     inkscape:current-layer="Your_Icon" /><g
     id="g3"
     transform="translate(-13.87,-30.847999)"><g
       id="g5"><g
         id="g7" /></g><g
       id="g9" /></g><path
     d="m 29.638663,50.845886 c 0,0 -10.916862,-9.630995 -21.5552371,-19.556974 2.2291741,-2.353509 4.3130781,-4.517978 6.1045361,-6.317683 3.486494,0.946478 8.038729,-0.489734 11.536642,-3.988281 C 30.369456,16.339998 31.384448,9.8256585 27.989303,6.4330515 24.599233,3.040444 18.083624,4.058607 13.438137,8.7021895 9.9389558,12.196931 8.50211,16.752338 9.4523952,20.239468 7.4934622,22.199668 5.305523,24.323537 3.0141808,26.508306 0.72157085,24.323537 -1.4663696,22.199668 -3.4253038,20.239468 -2.4769197,16.752338 -3.9144026,12.196931 -7.4148517,8.7021895 -12.0559,4.0592402 -18.570873,3.0410785 -21.965385,6.4330515 c -3.392607,3.392607 -2.376348,9.9069465 2.271044,14.5498965 3.495375,3.498547 8.04761,4.934759 11.5328363,3.987646 1.7920934,1.800975 3.8766309,3.964809 6.1051714,6.318953 -10.6383767,9.925344 -21.5558747,19.556339 -21.5558747,19.556339 -0.595673,0.599479 -0.529064,4.908117 0.876065,6.315781 1.585924,1.584656 5.7144,1.475544 6.314513,0.878602 0,0 9.925345,-11.10527 19.4339072,-21.341455 9.5117348,10.236185 19.4358088,21.341455 19.4358088,21.341455 0.596941,0.596942 4.725418,0.706054 6.315147,-0.878602 1.407031,-1.407664 1.472372,-5.716302 0.87543,-6.315781 z M 15.369158,10.631308 c 3.183266,-3.1902445 7.654301,-3.8867811 9.986243,-1.5586465 2.328136,2.3281375 1.626524,6.8010745 -1.559914,9.9849755 -3.187707,3.188341 -7.659377,3.884877 -9.987512,1.558646 -2.328136,-2.328137 -1.627158,-6.799172 1.561183,-9.984975 z m -23.1525787,9.984975 c -2.3275013,2.326231 -6.7953653,1.629695 -9.9868773,-1.558646 -3.185804,-3.183901 -3.884879,-7.656838 -1.556743,-9.9849755 2.330039,-2.3281346 6.799171,-1.631598 9.9868773,1.5586465 3.1877067,3.185803 3.8848778,7.656838 1.556743,9.984975 z m -9.3924733,34.531261 c -0.944576,0.942039 -2.47531,0.942039 -3.419887,0 -0.942672,-0.942672 -0.942672,-2.473406 0,-3.418616 0.944577,-0.940135 2.475311,-0.940135 3.419887,0 0.942673,0.94521 0.942673,2.475944 0,3.418616 z m 43.796227,0 c -0.943941,0.942039 -2.471502,0.942039 -3.416078,0 -0.943943,-0.942672 -0.943943,-2.473406 0,-3.418616 0.943941,-0.940135 2.471502,-0.940135 3.416078,0 0.94521,0.94521 0.94521,2.475944 0,3.418616 z"
     id="path3"
     style="fill:#5cb85c;fill-opacity:1"
     inkscape:connector-curvature="0" /><g
     id="g3774"
     transform="matrix(0.71352123,0,0,0.71352123,24.106899,-4.2389535)"><polygon
       points="33.125,38.621 38.302,38.678 43.944,44.565 33.979,42.822 "
       id="polygon13"
       style="fill:#d9534f;fill-opacity:1" /><path
       d="m 75.057,26.295 0,0 -0.661,-11.79 -2.847,-9.353 -15.615,12.295 -5.963,0.547 -5.905,-0.547 -15.615,-12.295 -2.848,9.353 -0.661,11.79 0,0 L 13.87,59.714 49.97,94.848 86.13,59.714 75.057,26.295 z M 16.762,59.144 26.165,27.131 33.547,19.02 49.97,21.768 66.452,19.02 73.835,27.131 83.237,59.144 49.97,87.846 16.762,59.144 z"
       id="path15"
       style="fill:#d9534f;fill-opacity:1"
       inkscape:connector-curvature="0" /><polygon
       points="66.874,38.621 61.697,38.678 56.056,44.565 66.021,42.822 "
       id="polygon17"
       style="fill:#d9534f;fill-opacity:1" /><path
       d="m 81.123,55.734 -7.489,-10.888 3.591,7.507 -3.932,-1.708 0.608,4.16 -4.561,-1.497 -6.762,6.199 -2.393,8.084 -2.136,3.272 -2.243,0.946 h -2.98 l 3.824,-4.917 0.397,-3.574 -1.571,-5.567 -1.559,-6.665 2.152,-6.506 -3.642,6.521 1.391,6.903 2.407,5.574 -6.257,1.973 -6.197,-1.973 2.406,-5.574 1.391,-6.903 -3.64,-6.521 2.151,6.506 -1.559,6.665 -1.57,5.567 0.398,3.574 3.823,4.917 h -2.979 l -2.244,-0.946 -2.135,-3.272 -2.393,-8.084 -6.761,-6.199 -4.562,1.497 0.608,-4.16 -3.932,1.708 3.591,-7.507 -7.487,10.888 5.303,-2.297 -0.598,4.216 6.457,-1.932 6.059,4.816 2.644,7.72 2.402,3.553 2.533,1.038 0.4,2.745 5.893,2.867 5.951,-2.867 0.401,-2.745 2.532,-1.038 2.401,-3.553 2.646,-7.72 6.058,-4.816 6.457,1.932 -0.597,-4.216 5.304,2.297 z M 54.739,75.083 50,76.798 45.26,75.083 45.211,72.8 l 4.759,-0.989 4.819,0.989 -0.05,2.283 z"
       id="path19"
       style="fill:#d9534f;fill-opacity:1"
       inkscape:connector-curvature="0" /></g><path
     style="fill:none;stroke:#000000;stroke-width:4.00687742;stroke-linecap:square;stroke-linejoin:miter;stroke-miterlimit:4;stroke-opacity:1;stroke-dasharray:none"
     d="M 32,1.9193686 32,61.97196"
     id="path3828"
     inkscape:connector-curvature="0" /></svg>