<?xml version="1.0" encoding="UTF-8" standalone="no"?>
<svg
   xmlns:dc="http://purl.org/dc/elements/1.1/"
   xmlns:cc="http://creativecommons.org/ns#"
   xmlns:rdf="http://www.w3.org/1999/02/22-rdf-syntax-ns#"
   xmlns:svg="http://www.w3.org/2000/svg"
   xmlns="http://www.w3.org/2000/svg"
   xmlns:sodipodi="http://sodipodi.sourceforge.net/DTD/sodipodi-0.dtd"
   xmlns:inkscape="http://www.inkscape.org/namespaces/inkscape"
   version="1.1"
   id="Your_Icon"
   x="0px"
   y="0px"
   width="68.476852"
   height="85"
   viewBox="0 0 68.476852 85"
   enable-background="new 0 0 100 100"
   xml:space="preserve"
   inkscape:version="0.48.4 r9939"
   sodipodi:docname="wolf.svg"><metadata
     id="metadata25"><rdf:RDF><cc:Work
         rdf:about=""><dc:format>image/svg+xml</dc:format><dc:type
           rdf:resource="http://purl.org/dc/dcmitype/StillImage" /><dc:title /></cc:Work></rdf:RDF></metadata><defs
     id="defs23" /><sodipodi:namedview
     pagecolor="#ffffff"
     bordercolor="#666666"
     borderopacity="1"
     objecttolerance="10"
     gridtolerance="10"
     guidetolerance="10"
     inkscape:pageopacity="0"
     inkscape:pageshadow="2"
     inkscape:window-width="1440"
     inkscape:window-height="876"
     id="namedview21"
     showgrid="false"
     fit-margin-top="0"
     fit-margin-left="0"
     fit-margin-right="0"
     fit-margin-bottom="0"
     inkscape:zoom="4.72"
     inkscape:cx="25.479732"
     inkscape:cy="37.835638"
     inkscape:window-x="0"
     inkscape:window-y="24"
     inkscape:window-maximized="1"
     inkscape:current-layer="Your_Icon" /><g
     id="g3"
     transform="translate(-13.870001,-9.8480001)"><g
       id="g5"><g
         id="g7" /></g><g
       id="g9" /></g><g
     id="g3774"
     transform="matrix(0.94764538,0,0,0.94764538,-13.143842,-4.882269)"><polygon
       points="38.302,38.678 43.944,44.565 33.979,42.822 33.125,38.621 "
       id="polygon13"
       style="fill:#d9534f;fill-opacity:1" /><path
       d="m 75.057,26.295 0,0 -0.661,-11.79 -2.847,-9.353 -15.615,12.295 -5.963,0.547 -5.905,-0.547 -15.615,-12.295 -2.848,9.353 -0.661,11.79 0,0 L 13.87,59.714 49.97,94.848 86.13,59.714 75.057,26.295 z M 16.762,59.144 26.165,27.131 33.547,19.02 49.97,21.768 66.452,19.02 73.835,27.131 83.237,59.144 49.97,87.846 16.762,59.144 z"
       id="path15"
       style="fill:#d9534f;fill-opacity:1"
       inkscape:connector-curvature="0" /><polygon
       points="61.697,38.678 56.056,44.565 66.021,42.822 66.874,38.621 "
       id="polygon17"
       style="fill:#d9534f;fill-opacity:1" /><path
       d="m 81.123,55.734 -7.489,-10.888 3.591,7.507 -3.932,-1.708 0.608,4.16 -4.561,-1.497 -6.762,6.199 -2.393,8.084 -2.136,3.272 -2.243,0.946 h -2.98 l 3.824,-4.917 0.397,-3.574 -1.571,-5.567 -1.559,-6.665 2.152,-6.506 -3.642,6.521 1.391,6.903 2.407,5.574 -6.257,1.973 -6.197,-1.973 2.406,-5.574 1.391,-6.903 -3.64,-6.521 2.151,6.506 -1.559,6.665 -1.57,5.567 0.398,3.574 3.823,4.917 h -2.979 l -2.244,-0.946 -2.135,-3.272 -2.393,-8.084 -6.761,-6.199 -4.562,1.497 0.608,-4.16 -3.932,1.708 3.591,-7.507 -7.487,10.888 5.303,-2.297 -0.598,4.216 6.457,-1.932 6.059,4.816 2.644,7.72 2.402,3.553 2.533,1.038 0.4,2.745 5.893,2.867 5.951,-2.867 0.401,-2.745 2.532,-1.038 2.401,-3.553 2.646,-7.72 6.058,-4.816 6.457,1.932 -0.597,-4.216 5.304,2.297 z M 54.739,75.083 50,76.798 45.26,75.083 45.211,72.8 l 4.759,-0.989 4.819,0.989 -0.05,2.283 z"
       id="path19"
       style="fill:#d9534f;fill-opacity:1"
       inkscape:connector-curvature="0" /></g></svg>